<?xml version="1.0" standalone="no"?>
<!DOCTYPE svg PUBLIC "-//W3C//DTD SVG 20010904//EN"
 "http://www.w3.org/TR/2001/REC-SVG-20010904/DTD/svg10.dtd">
<svg version="1.0" xmlns="http://www.w3.org/2000/svg"
 width="5000.000000pt" height="1579.000000pt" viewBox="0 0 5000.000000 1579.000000"
 preserveAspectRatio="xMidYMid meet">

<g transform="translate(0.000000,1579.000000) scale(0.100000,-0.100000)"
fill="#000000" stroke="none">
<path d="M12918 12920 l-2858 -2863 0 -1678 0 -1679 2778 2783 c1527 1530
2814 2821 2860 2868 l82 85 -2 1674 -3 1673 -2857 -2863z"/>
<path d="M49465 12596 c-129 -31 -241 -123 -297 -241 -43 -92 -50 -211 -19
-313 55 -180 219 -302 409 -302 135 0 235 42 325 139 84 89 123 204 114 329
-20 261 -279 450 -532 388z m230 -77 c77 -29 156 -104 197 -187 30 -61 33 -74
33 -162 0 -82 -4 -103 -26 -150 -39 -82 -99 -144 -177 -182 -60 -30 -75 -33
-157 -33 -77 0 -98 4 -147 27 -79 37 -142 98 -181 177 -96 195 -3 432 201 512
67 26 185 25 257 -2z"/>
<path d="M49420 12170 l0 -240 35 0 35 0 0 100 0 100 34 0 c34 0 37 -4 91
-100 54 -96 57 -100 91 -100 19 0 34 3 34 8 0 4 -24 50 -54 102 l-53 95 33 18
c90 47 84 196 -10 241 -24 11 -63 16 -135 16 l-101 0 0 -240z m211 167 c44
-34 47 -103 6 -132 -14 -9 -45 -15 -84 -15 l-63 0 0 80 0 80 63 0 c34 0 69 -6
78 -13z"/>
<path d="M35260 12423 c-326 -24 -617 -161 -865 -408 -418 -417 -725 -1156
-835 -2005 -27 -208 -38 -598 -21 -750 83 -730 448 -1120 1048 -1120 302 0
560 86 793 263 520 398 899 1276 1002 2322 15 161 15 556 0 675 -54 403 -193
686 -417 845 -139 100 -300 157 -494 175 -104 10 -119 10 -211 3z m80 -825
c51 -27 95 -96 117 -187 60 -244 -7 -893 -153 -1474 -109 -433 -234 -720 -384
-881 -77 -82 -135 -111 -220 -111 -148 0 -224 111 -250 362 -24 233 24 694
116 1105 150 675 368 1114 591 1194 59 21 132 17 183 -8z"/>
<path d="M40716 12419 c-390 -38 -735 -249 -1011 -619 -379 -509 -626 -1279
-676 -2108 -32 -529 78 -967 311 -1238 182 -211 427 -314 750 -314 405 0 761
174 1042 509 345 413 612 1085 712 1796 37 262 41 327 41 630 0 275 -3 323
-22 431 -102 560 -400 866 -891 914 -110 11 -132 11 -256 -1z m131 -825 c47
-35 82 -95 104 -179 18 -67 22 -109 22 -265 1 -260 -35 -565 -113 -950 -135
-666 -337 -1119 -551 -1231 -63 -33 -158 -33 -216 0 -116 66 -161 235 -150
566 19 553 175 1249 372 1662 105 219 206 346 318 399 66 32 170 31 214 -2z"/>
<path d="M4528 7889 l-4527 -4534 -1 -1675 0 -1675 2975 2975 2975 2975 0
-1680 0 -1680 1555 1555 1555 1555 -2 3359 -3 3359 -4527 -4534z"/>
<path d="M16143 9448 l-2973 -2973 0 1065 0 1065 -1555 -1555 -1555 -1555 0
-1067 0 -1068 1678 0 1677 0 2853 2853 2852 2852 -2 1678 -3 1677 -2972 -2972z"/>
<path d="M23845 12394 c-341 -52 -657 -231 -849 -478 -203 -262 -297 -560
-283 -906 8 -199 40 -326 127 -502 92 -186 173 -289 422 -545 101 -104 188
-203 218 -249 167 -256 110 -565 -128 -692 -80 -43 -168 -62 -288 -62 -185 0
-393 51 -528 130 -37 22 -70 40 -72 40 -2 0 -3 -203 -2 -452 l3 -452 70 -18
c193 -49 525 -71 722 -48 336 39 609 165 823 380 246 245 374 560 387 950 8
250 -31 425 -142 638 -88 168 -154 252 -366 462 -223 221 -279 287 -323 380
-29 61 -31 72 -30 180 0 94 4 125 22 171 34 85 78 145 139 189 91 65 150 82
293 88 156 5 257 -16 391 -83 50 -26 94 -44 96 -41 3 3 43 190 88 415 l82 410
-61 25 c-150 62 -306 86 -546 85 -96 -1 -215 -7 -265 -15z"/>
<path d="M25945 12394 c-274 -42 -544 -171 -738 -353 -63 -59 -162 -186 -215
-276 -177 -302 -231 -715 -136 -1044 75 -257 192 -435 491 -742 249 -257 307
-351 328 -526 20 -174 -73 -351 -226 -433 -190 -101 -566 -70 -807 67 -37 21
-70 40 -75 41 -4 2 -6 -200 -5 -449 l3 -453 70 -18 c191 -48 532 -72 721 -49
664 80 1113 517 1199 1168 41 303 0 552 -130 801 -88 168 -154 252 -366 462
-223 221 -280 288 -323 379 -73 157 -32 388 90 507 89 86 198 124 357 124 135
0 232 -22 356 -81 57 -27 106 -47 109 -44 3 2 42 189 87 414 l82 410 -61 25
c-150 62 -306 86 -546 85 -96 -1 -215 -7 -265 -15z"/>
<path d="M38659 12395 c-317 -51 -608 -181 -844 -376 -83 -68 -241 -228 -314
-318 -409 -501 -651 -1282 -651 -2104 0 -491 133 -883 385 -1133 167 -166 394
-271 657 -304 168 -21 444 -9 609 26 l76 16 87 431 c47 237 84 432 82 434 -2
2 -36 -10 -77 -26 -87 -35 -203 -58 -332 -67 -258 -18 -403 75 -483 309 -110
322 -70 927 91 1398 50 146 182 406 262 518 160 222 342 351 543 382 123 19
292 -7 422 -64 l37 -17 10 53 c6 28 44 218 85 420 l73 368 -26 11 c-14 5 -66
19 -116 30 -119 26 -449 34 -576 13z"/>
<path d="M45755 12394 c-292 -45 -558 -177 -755 -374 -146 -145 -240 -298
-305 -493 -51 -154 -65 -237 -72 -408 -7 -179 9 -303 56 -441 85 -251 191
-405 476 -698 245 -251 304 -343 325 -505 18 -141 -20 -272 -105 -364 -98
-105 -221 -150 -406 -151 -181 0 -378 48 -515 126 -43 24 -79 44 -81 44 -2 0
-2 -203 -1 -452 l3 -452 70 -18 c191 -48 532 -72 721 -49 571 69 985 401 1144
919 43 142 60 249 67 412 10 238 -32 426 -142 638 -87 167 -154 251 -376 472
-292 290 -339 360 -347 519 -13 236 108 410 325 466 76 20 245 19 336 -1 40
-9 119 -38 176 -65 57 -27 106 -47 109 -44 3 2 42 189 87 414 l82 410 -57 24
c-72 32 -202 64 -310 77 -117 14 -397 11 -505 -6z"/>
<path d="M43105 12390 c-82 -5 -197 -13 -255 -20 -113 -12 -393 -51 -398 -55
-3 -3 -822 -4097 -822 -4113 0 -10 90 -12 437 -10 l438 3 152 785 c84 432 155
795 158 808 5 19 12 22 50 22 24 0 68 -5 97 -11 66 -14 127 -72 152 -145 41
-119 46 -212 46 -851 l0 -613 435 0 435 0 0 593 c0 326 -5 654 -11 728 -20
265 -84 457 -189 572 l-50 55 52 27 c236 123 446 347 567 605 75 161 114 309
133 507 24 250 -34 490 -164 684 -221 331 -613 464 -1263 429z m338 -746 c61
-21 121 -82 149 -152 20 -51 23 -73 22 -217 0 -144 -3 -169 -27 -248 -98 -318
-301 -497 -564 -497 -50 0 -53 1 -48 23 3 12 48 243 100 512 52 270 100 514
106 543 l10 52 103 0 c67 0 118 -5 149 -16z"/>
<path d="M21217 12343 c-8 -21 -396 -958 -862 -2083 -466 -1125 -849 -2051
-852 -2057 -4 -10 88 -13 440 -13 l445 0 32 83 c17 45 97 253 178 462 l147
380 319 3 318 2 -6 -87 c-3 -49 -9 -260 -12 -471 l-7 -382 434 2 434 3 3 2098
2 2097 -499 0 -499 0 -15 -37z m229 -1405 c-7 -148 -35 -1019 -36 -1085 l0
-33 -211 0 c-165 0 -210 3 -206 13 110 295 376 1028 408 1125 24 72 45 132 48
132 2 0 1 -69 -3 -152z"/>
<path d="M27365 12368 c-6 -14 -835 -4158 -835 -4170 0 -5 430 -8 955 -8 525
0 955 3 955 8 0 4 36 180 80 392 44 212 80 391 80 398 0 9 -108 12 -505 12
-474 0 -505 1 -505 18 1 9 45 229 98 487 l98 470 445 3 445 2 77 378 c43 207
78 383 77 390 0 9 -97 12 -451 12 -357 0 -450 3 -447 13 3 6 43 189 89 405
l84 392 462 0 c272 0 464 4 468 9 6 11 165 767 165 787 0 20 -1828 21 -1835 2z"/>
<path d="M29345 12368 c-9 -29 -155 -761 -155 -779 0 -18 12 -19 345 -19 269
0 345 -3 345 -12 0 -12 -654 -3306 -667 -3355 l-5 -23 445 0 c245 0 448 3 451
8 2 4 156 767 342 1695 l337 1687 349 0 c270 0 350 3 353 13 3 6 39 179 80
382 41 204 77 380 80 393 l5 22 -1150 0 c-912 0 -1151 -3 -1155 -12z"/>
<path d="M31725 12368 c-11 -33 -162 -784 -158 -790 2 -5 159 -8 349 -8 270 0
344 -3 344 -13 0 -7 -151 -766 -335 -1687 -184 -921 -335 -1678 -335 -1683 0
-4 201 -6 448 -5 l447 3 332 1660 c182 913 334 1675 337 1692 l7 33 352 2 351
3 83 400 c45 220 82 401 82 403 1 1 -517 2 -1149 2 -912 0 -1152 -3 -1155 -12z"/>
<path d="M47891 12363 c-13 -26 -1713 -4135 -1719 -4156 -4 -16 20 -17 439
-15 l443 3 133 345 c73 190 154 398 179 463 l46 117 314 0 315 0 -8 -367 c-4
-203 -8 -413 -8 -468 l0 -100 433 -3 432 -2 0 2100 0 2100 -495 0 c-461 0
-495 -1 -504 -17z m219 -1469 c-6 -115 -17 -401 -23 -636 -7 -234 -15 -429
-18 -432 -3 -4 -98 -5 -211 -4 l-205 3 169 455 c92 250 196 539 230 642 34
103 64 186 65 184 2 -2 -1 -97 -7 -212z"/>
<path d="M21870 7685 c-8 -2 -49 -9 -90 -15 -593 -96 -1091 -635 -1385 -1501
-176 -517 -268 -1195 -224 -1645 62 -638 341 -1041 804 -1160 80 -21 133 -27
260 -31 254 -8 439 29 650 131 525 254 934 901 1139 1801 31 137 70 368 92
545 21 180 30 662 15 801 -71 621 -364 983 -862 1064 -81 13 -349 20 -399 10z
m166 -840 c52 -30 85 -76 115 -160 68 -185 8 -889 -126 -1483 -82 -363 -204
-695 -317 -860 -122 -178 -280 -241 -416 -167 -133 72 -180 229 -169 560 26
721 225 1545 460 1900 142 215 311 293 453 210z"/>
<path d="M41995 7683 c-182 -24 -365 -86 -519 -177 -633 -375 -1086 -1343
-1167 -2491 -14 -198 -7 -475 16 -619 61 -392 218 -698 448 -872 86 -65 224
-129 342 -160 132 -34 370 -44 520 -20 297 45 552 176 775 396 113 111 181
196 279 344 314 477 522 1158 582 1909 15 197 7 611 -15 732 -103 562 -381
874 -847 950 -86 14 -332 19 -414 8z m179 -837 c53 -31 91 -85 118 -168 88
-267 -49 -1324 -248 -1910 -83 -245 -218 -487 -311 -554 -85 -62 -155 -81
-237 -64 -116 24 -192 122 -222 290 -30 165 -2 611 62 995 115 686 318 1205
534 1369 104 79 215 94 304 42z"/>
<path d="M19805 7665 c-458 -65 -844 -269 -1139 -600 -487 -547 -746 -1326
-746 -2241 0 -517 137 -907 409 -1167 246 -233 556 -330 1001 -314 163 6 358
33 435 60 30 10 41 20 43 38 6 54 50 794 47 797 -1 2 -31 -4 -66 -13 -82 -22
-257 -45 -340 -45 -250 -1 -408 124 -482 380 -40 139 -50 255 -44 518 10 451
95 817 268 1153 127 247 267 409 445 512 108 64 196 87 326 87 127 0 216 -12
294 -40 l53 -18 16 51 c8 29 66 212 128 407 77 241 110 357 103 363 -21 14
-136 46 -223 62 -123 23 -401 28 -528 10z"/>
<path d="M28295 7654 c-293 -22 -630 -64 -644 -81 -7 -8 -801 -4155 -801
-4181 0 -10 94 -12 452 -10 l453 3 142 735 c78 404 142 736 142 738 1 1 60 2
131 2 393 0 765 105 1053 296 590 393 856 1327 551 1937 -118 236 -307 388
-597 482 -185 60 -307 77 -587 80 -135 1 -267 1 -295 -1z m466 -781 c168 -76
234 -257 198 -543 -30 -242 -111 -424 -245 -549 -112 -105 -217 -145 -413
-157 l-113 -7 6 29 c3 16 58 301 121 633 69 365 119 608 127 613 7 5 72 7 143
6 106 -3 138 -7 176 -25z"/>
<path d="M23418 5513 l-545 -2128 395 -3 c217 -1 396 -1 398 0 5 6 367 1521
424 1778 34 151 94 441 135 643 40 203 76 371 78 373 2 3 7 -278 10 -623 3
-345 15 -916 26 -1268 11 -352 21 -679 21 -727 l0 -88 344 0 343 0 278 673
c153 369 307 741 342 826 96 234 246 635 348 936 51 148 98 271 104 273 16 5
15 -1 -29 -243 -68 -370 -118 -661 -149 -860 -33 -208 -231 -1650 -231 -1678
0 -16 26 -17 402 -15 l403 3 272 2105 c149 1158 272 2115 272 2128 l1 22 -486
-2 -486 -3 -334 -865 c-491 -1269 -617 -1617 -704 -1937 -19 -68 -36 -123 -39
-123 -3 0 -7 195 -8 433 -1 389 -33 1888 -49 2325 l-6 172 -492 0 -492 0 -546
-2127z"/>
<path d="M30435 7618 c-9 -40 -845 -4222 -845 -4230 0 -5 436 -8 970 -8 l970
0 5 23 c3 12 39 186 81 387 41 201 77 375 81 388 l5 22 -521 0 -521 0 5 23 c3
12 50 236 104 497 l98 475 453 5 454 5 81 393 81 392 -458 0 c-360 0 -458 3
-458 13 0 6 39 195 87 419 l87 408 475 2 475 3 82 395 c46 217 84 398 84 403
0 4 -421 7 -935 7 l-935 0 -5 -22z"/>
<path d="M32575 7618 c-16 -71 -155 -762 -155 -774 0 -12 54 -14 355 -14 195
0 355 -1 355 -3 0 -4 -679 -3401 -685 -3425 l-5 -22 457 2 457 3 345 1723 344
1722 358 0 c198 0 359 3 359 6 0 3 36 183 80 399 44 216 80 396 80 399 0 3
-526 6 -1170 6 l-1170 0 -5 -22z"/>
<path d="M35235 7618 c-3 -13 -187 -970 -408 -2128 l-403 -2105 465 -3 c255
-1 465 -1 467 1 2 2 771 4009 809 4220 l7 37 -466 0 -466 0 -5 -22z"/>
<path d="M36721 7538 c-11 -57 -50 -244 -85 -415 l-64 -313 549 0 c343 0 549
-4 549 -10 0 -8 -2137 -3376 -2162 -3407 -8 -10 246 -13 1264 -13 l1274 0 78
403 c44 221 81 408 84 415 3 9 -117 12 -578 12 -550 0 -582 1 -578 18 5 15
2144 3367 2170 3400 8 9 -240 12 -1234 12 l-1245 0 -22 -102z"/>
<path d="M39527 7618 c-11 -45 -807 -4215 -807 -4226 0 -9 115 -12 465 -12
l465 0 5 23 c14 59 805 4210 805 4223 0 12 -67 14 -464 14 l-464 0 -5 -22z"/>
<path d="M43925 7628 c-2 -7 -185 -958 -405 -2113 -221 -1155 -403 -2108 -406
-2117 -5 -17 18 -18 395 -18 221 0 401 3 401 8 0 4 41 221 90 482 140 738 262
1504 330 2075 22 182 27 211 35 203 2 -2 14 -103 25 -224 32 -342 57 -524 111
-804 26 -136 354 -1603 380 -1702 l10 -38 394 0 394 0 10 53 c34 168 801 4187
801 4196 0 8 -120 11 -394 11 -367 0 -395 -1 -400 -17 -7 -25 -139 -717 -170
-893 -68 -386 -127 -817 -196 -1438 -26 -239 -51 -436 -54 -439 -7 -8 -12 23
-30 192 -33 310 -81 585 -303 1727 l-168 868 -423 0 c-329 0 -424 -3 -427 -12z"/>
<path d="M47040 7637 c0 -1 -191 -958 -425 -2127 -234 -1169 -425 -2126 -425
-2127 0 -2 437 -2 972 -1 l972 3 82 395 c46 217 83 401 83 408 1 9 -108 12
-514 12 -462 0 -515 2 -515 16 0 12 174 870 195 962 l5 22 453 0 452 0 79 383
c43 210 81 388 84 395 3 9 -92 12 -457 12 -362 0 -461 3 -461 13 1 6 40 194
88 417 l87 405 475 3 475 2 83 398 c45 218 82 400 82 405 0 6 -1870 11 -1870
4z"/>
<path d="M11025 2244 c-38 -8 -111 -35 -160 -59 -190 -91 -286 -244 -272 -430
21 -270 259 -444 609 -445 135 0 231 20 336 70 202 97 307 279 273 476 -30
171 -161 304 -366 371 -103 33 -309 42 -420 17z m296 -168 c169 -36 269 -145
269 -291 0 -192 -175 -318 -420 -302 -223 15 -349 124 -350 303 0 148 95 252
264 289 81 18 156 18 237 1z"/>
<path d="M15677 2239 c-305 -75 -469 -305 -402 -564 42 -161 165 -271 375
-337 66 -20 95 -23 235 -23 180 0 230 11 350 73 61 32 195 143 195 161 0 3
-39 27 -87 53 l-88 46 -45 -39 c-215 -189 -587 -160 -703 56 -17 31 -22 57
-22 120 0 70 4 87 30 134 54 97 162 157 304 167 136 10 261 -29 380 -118 l54
-41 84 29 c111 38 110 37 90 68 -25 38 -144 130 -215 165 -140 71 -366 92
-535 50z"/>
<path d="M26257 2239 c-304 -74 -469 -305 -402 -564 42 -159 164 -270 370
-335 97 -30 309 -39 415 -16 106 22 227 85 305 158 36 33 65 63 65 67 0 3 -39
27 -87 53 l-88 46 -45 -39 c-215 -189 -587 -160 -703 56 -17 31 -22 57 -22
120 0 70 4 87 30 134 54 97 162 157 304 167 136 10 261 -29 380 -118 l54 -41
84 29 c113 39 112 38 87 71 -65 87 -241 191 -372 218 -102 21 -277 19 -375 -6z"/>
<path d="M32855 2245 c-196 -43 -361 -163 -417 -303 -33 -82 -33 -245 0 -317
59 -128 176 -227 332 -279 111 -38 302 -47 427 -22 198 40 350 142 418 280 26
54 53 200 42 229 -6 15 -37 17 -342 17 l-335 0 0 -90 0 -90 218 -2 217 -3 -44
-48 c-151 -164 -484 -180 -650 -31 -66 60 -93 117 -93 198 1 80 21 129 79 188
138 140 432 155 576 28 l37 -32 110 39 c60 21 110 43 110 50 0 21 -94 93 -175
133 -44 22 -115 46 -157 55 -93 18 -270 18 -353 0z"/>
<path d="M35918 2250 c-182 -22 -304 -95 -344 -207 -28 -81 -11 -159 50 -219
75 -75 206 -107 508 -123 185 -10 237 -23 257 -60 29 -53 -25 -110 -130 -137
-49 -13 -91 -15 -184 -11 -142 6 -232 29 -356 91 l-86 43 -52 -64 c-29 -35
-54 -70 -57 -77 -7 -18 199 -119 286 -141 245 -61 558 -35 697 58 121 81 158
233 84 348 -57 90 -192 131 -486 149 -198 12 -269 24 -296 51 -44 44 -7 90 91
115 50 13 95 15 200 12 118 -4 147 -9 230 -37 52 -18 106 -39 118 -47 13 -9
25 -14 26 -12 1 2 28 33 60 70 32 37 55 72 51 78 -12 19 -102 59 -188 84 -141
41 -319 54 -479 36z"/>
<path d="M41930 2250 c-177 -22 -290 -84 -336 -185 -59 -126 -2 -251 141 -304
82 -31 207 -49 408 -60 209 -12 250 -24 255 -78 5 -48 -14 -72 -76 -101 -54
-25 -66 -27 -202 -27 -170 0 -255 20 -394 89 l-83 42 -52 -62 c-28 -35 -53
-69 -56 -76 -10 -26 162 -110 290 -143 223 -57 520 -38 667 42 101 55 158 160
143 267 -22 172 -149 225 -607 254 -167 11 -221 28 -226 72 -8 69 106 105 308
97 142 -5 224 -23 322 -73 l46 -24 63 71 63 71 -25 19 c-36 28 -163 75 -253
94 -93 19 -304 27 -396 15z"/>
<path d="M43845 2246 c-301 -69 -477 -282 -436 -529 24 -145 120 -263 274
-336 121 -58 211 -75 371 -68 214 8 352 60 467 176 91 93 128 179 129 304 l0
57 -340 0 -340 0 0 -90 0 -90 215 0 c142 0 215 -4 215 -10 0 -20 -91 -99 -143
-124 -60 -30 -171 -56 -237 -56 -66 0 -171 25 -227 54 -112 56 -163 127 -171
236 -4 61 -1 76 22 124 98 200 435 259 629 111 l46 -35 87 31 c47 17 98 35
112 40 l25 10 -34 36 c-53 56 -145 111 -233 139 -69 23 -103 27 -226 30 -98 2
-164 -1 -205 -10z"/>
<path d="M6010 2150 l0 -90 215 0 215 0 0 -365 0 -365 110 0 110 0 0 365 0
365 215 0 215 0 0 90 0 90 -540 0 -540 0 0 -90z"/>
<path d="M8835 2228 c-3 -7 -4 -211 -3 -453 l3 -440 508 -3 507 -2 0 85 0 85
-397 2 -398 3 -3 98 -3 97 266 0 265 0 0 90 0 90 -265 0 -265 0 0 90 0 90 380
0 380 0 0 90 0 90 -485 0 c-379 0 -487 -3 -490 -12z"/>
<path d="M12167 2233 c-4 -3 -7 -208 -7 -455 l0 -448 110 0 110 0 0 185 0 185
263 2 262 3 3 88 3 87 -266 0 -265 0 0 90 0 90 380 0 380 0 0 90 0 90 -483 0
c-266 0 -487 -3 -490 -7z"/>
<path d="M13430 1785 l0 -455 110 0 110 0 0 185 0 185 263 2 262 3 0 85 0 85
-262 3 -263 2 0 90 0 90 380 0 381 0 -3 88 -3 87 -487 3 -488 2 0 -455z"/>
<path d="M14700 1785 l0 -456 108 3 107 3 0 450 0 450 -107 3 -108 3 0 -456z"/>
<path d="M16777 2233 c-4 -3 -7 -208 -7 -455 l0 -448 110 0 110 0 0 455 0 455
-103 0 c-57 0 -107 -3 -110 -7z"/>
<path d="M17687 2198 c-42 -73 -457 -857 -457 -863 0 -3 49 -5 109 -5 l108 0
53 100 53 100 288 0 288 0 53 -100 53 -100 108 0 c59 0 107 3 107 7 0 4 -107
208 -237 455 l-238 448 -132 0 -132 0 -24 -42z m254 -318 l97 -180 -198 0
-198 0 96 180 c53 99 99 180 102 180 3 0 48 -81 101 -180z"/>
<path d="M20360 1784 l0 -455 443 3 c383 3 449 6 493 21 110 37 180 118 191
221 5 47 2 64 -21 110 -15 31 -42 66 -64 82 -20 15 -39 29 -41 31 -3 2 7 16
22 31 35 37 57 92 57 147 0 124 -109 230 -261 255 -36 5 -230 10 -441 10
l-378 0 0 -456z m834 250 c34 -35 35 -83 2 -121 l-24 -28 -296 -3 -296 -3 0
91 0 90 294 0 293 0 27 -26z m12 -339 c73 -30 80 -135 11 -173 -28 -15 -70
-17 -334 -20 l-303 -4 0 106 0 106 295 0 c237 0 303 -3 331 -15z"/>
<path d="M23412 2223 c-6 -10 -104 -196 -219 -413 -116 -217 -220 -414 -232
-437 l-21 -43 109 0 110 0 53 100 53 100 289 -3 290 -2 50 -95 51 -95 108 -3
c64 -2 107 1 107 7 0 5 -106 210 -236 455 l-236 446 -134 0 c-117 0 -134 -2
-142 -17z m242 -343 l94 -175 -191 -3 c-104 -1 -192 -1 -194 2 -7 6 181 356
190 353 4 -1 50 -81 101 -177z"/>
<path d="M24407 2233 c-4 -3 -7 -208 -7 -455 l0 -448 110 0 110 0 0 321 c0
186 4 319 9 317 5 -1 145 -146 311 -321 l302 -318 126 3 127 3 0 450 0 450
-107 3 -108 3 -2 -328 -3 -327 -310 327 -310 327 -121 0 c-66 0 -124 -3 -127
-7z"/>
<path d="M27357 2233 c-4 -3 -7 -208 -7 -455 l0 -448 110 0 110 0 0 160 0 160
273 0 c366 0 441 14 520 95 44 45 67 113 67 195 0 158 -101 265 -275 290 -77
11 -788 14 -798 3z m824 -210 c26 -26 32 -40 32 -75 0 -54 -15 -83 -56 -105
-28 -16 -63 -18 -307 -18 l-275 0 -3 118 -3 118 291 -3 290 -3 31 -32z"/>
<path d="M28897 2198 c-40 -70 -457 -858 -457 -863 0 -3 49 -5 109 -5 l108 0
53 100 53 100 288 0 288 0 53 -100 53 -100 108 0 c59 0 107 3 107 7 0 4 -107
208 -237 455 l-238 448 -132 0 -132 0 -24 -42z m254 -318 l97 -180 -198 0
-198 0 96 180 c53 99 99 180 102 180 3 0 48 -81 101 -180z"/>
<path d="M29900 1785 l0 -455 110 0 110 0 0 455 0 455 -110 0 -110 0 0 -455z"/>
<path d="M30500 1785 l0 -455 110 0 110 0 2 322 3 321 305 -321 305 -322 128
0 127 0 0 455 0 455 -110 0 -110 0 -2 -325 -3 -324 -308 324 -308 325 -124 0
-125 0 0 -455z"/>
<path d="M33754 2227 c-3 -8 -4 -47 -2 -88 l3 -74 212 -3 213 -2 2 -363 3
-362 108 -3 107 -3 0 366 0 365 215 0 215 0 0 90 0 90 -535 0 c-439 0 -537 -2
-541 -13z"/>
<path d="M36965 2228 c-3 -7 -4 -211 -3 -453 l3 -440 508 -3 507 -2 0 85 0 85
-397 2 -398 3 -3 98 -3 97 266 0 265 0 0 90 0 90 -265 0 -265 0 0 90 0 90 380
0 380 0 0 90 0 90 -485 0 c-379 0 -487 -3 -490 -12z"/>
<path d="M38297 2233 c-4 -3 -7 -208 -7 -455 l0 -448 110 0 110 0 0 160 0 160
209 0 209 0 109 -157 109 -158 122 -3 c67 -1 122 0 122 3 0 3 -49 78 -110 166
-60 88 -110 162 -110 164 0 1 18 10 39 19 52 20 107 70 134 120 33 62 32 202
-3 269 -45 90 -123 139 -246 157 -76 11 -787 14 -797 3z m824 -211 c61 -68 25
-171 -66 -192 -22 -5 -154 -10 -292 -10 l-253 0 0 120 0 121 291 -3 291 -3 29
-33z"/>
<path d="M39705 2228 c-3 -7 -4 -211 -3 -453 l3 -440 108 -3 107 -3 0 456 0
455 -105 0 c-75 0 -107 -4 -110 -12z"/>
<path d="M40315 2228 c-3 -7 -4 -211 -3 -453 l3 -440 508 -3 507 -2 0 85 0 85
-397 2 -398 3 -3 98 -3 97 266 0 265 0 0 90 0 90 -265 0 -265 0 0 90 0 90 380
0 380 0 0 90 0 90 -485 0 c-379 0 -487 -3 -490 -12z"/>
<path d="M45256 2218 c-19 -32 -454 -850 -462 -871 -6 -15 4 -17 103 -17 l109
0 53 100 52 100 289 0 289 0 51 -100 52 -100 109 0 c60 0 109 3 109 6 0 6
-445 847 -466 882 -14 21 -21 22 -144 22 -123 0 -130 -1 -144 -22z m242 -334
c52 -97 92 -178 89 -180 -2 -2 -90 -3 -194 -2 l-190 3 95 178 c52 97 97 177
101 177 3 0 48 -79 99 -176z"/>
<path d="M46250 1785 l0 -455 110 0 110 0 2 320 3 320 214 -256 c176 -212 215
-254 226 -243 7 8 104 124 216 259 l204 245 3 -323 2 -323 108 3 107 3 0 450
0 450 -126 3 -126 3 -199 -241 c-178 -215 -200 -238 -214 -225 -8 9 -98 116
-200 238 l-185 222 -127 3 -128 3 0 -456z"/>
<path d="M47945 2228 c-3 -7 -4 -211 -3 -453 l3 -440 508 -3 507 -2 0 85 0 85
-397 2 -398 3 -3 98 -3 97 266 0 265 0 0 90 0 90 -265 0 -265 0 0 90 0 90 380
0 380 0 0 90 0 90 -485 0 c-379 0 -487 -3 -490 -12z"/>
<path d="M7352 1783 l3 -448 108 -3 107 -3 0 196 0 195 330 0 330 0 0 -195 0
-195 105 0 105 0 0 450 0 450 -105 0 -105 0 0 -160 0 -160 -330 0 -330 0 0
160 0 160 -110 0 -110 0 2 -447z"/>
<path d="M18690 1780 l0 -450 455 0 455 0 0 85 0 85 -345 0 -345 0 0 365 0
365 -110 0 -110 0 0 -450z"/>
<path d="M21822 1783 l3 -448 458 -3 457 -2 0 85 0 85 -347 2 -348 3 -3 363
-2 362 -110 0 -110 0 2 -447z"/>
</g>
</svg>
